<svg width="0" height="0" class="hidden">
  <symbol fill="inherit" xmlns="http://www.w3.org/2000/svg" viewBox="0 0 16 16" id="youtube">
    <path d="M14.7078 4.62656C14.6281 4.32975 14.4719 4.05907 14.2547 3.84162C14.0375 3.62417 13.767 3.46757 13.4703 3.3875C12.3781 3.09375 8 3.09375 8 3.09375C8 3.09375 3.62187 3.09375 2.52969 3.38594C2.23284 3.46575 1.96223 3.62226 1.74501 3.83975C1.52779 4.05724 1.37162 4.32806 1.29219 4.625C1 5.71875 1 8 1 8C1 8 1 10.2813 1.29219 11.3734C1.45312 11.9766 1.92812 12.4516 2.52969 12.6125C3.62187 12.9063 8 12.9062 8 12.9062C8 12.9062 12.3781 12.9063 13.4703 12.6125C14.0734 12.4516 14.5469 11.9766 14.7078 11.3734C15 10.2813 15 8 15 8C15 8 15 5.71875 14.7078 4.62656ZM6.60938 10.0938V5.90625L10.2344 7.98438L6.60938 10.0938Z"></path>
  </symbol>
  <symbol fill="inherit" xmlns="http://www.w3.org/2000/svg" viewBox="0 0 16 16" id="twitter">
    <path d="M14.9733 4.00002C14.46 4.23335 13.9067 4.38669 13.3333 4.46002C13.92 4.10669 14.3733 3.54669 14.5867 2.87335C14.0333 3.20669 13.42 3.44002 12.7733 3.57335C12.2467 3.00002 11.5067 2.66669 10.6667 2.66669C9.10001 2.66669 7.82001 3.94669 7.82001 5.52669C7.82001 5.75335 7.84667 5.97335 7.89334 6.18002C5.52001 6.06002 3.40667 4.92002 2.00001 3.19335C1.75334 3.61335 1.61334 4.10669 1.61334 4.62669C1.61334 5.62002 2.11334 6.50002 2.88667 7.00002C2.41334 7.00002 1.97334 6.86669 1.58667 6.66669V6.68669C1.58667 8.07335 2.57334 9.23335 3.88001 9.49335C3.46049 9.60816 3.02007 9.62413 2.59334 9.54002C2.77441 10.1083 3.12903 10.6056 3.60735 10.962C4.08567 11.3183 4.66364 11.5158 5.26001 11.5267C4.24909 12.327 2.996 12.7596 1.70667 12.7534C1.48001 12.7534 1.25334 12.74 1.02667 12.7134C2.29334 13.5267 3.80001 14 5.41334 14C10.6667 14 13.5533 9.64002 13.5533 5.86002C13.5533 5.73335 13.5533 5.61335 13.5467 5.48669C14.1067 5.08669 14.5867 4.58002 14.9733 4.00002Z"></path>
  </symbol>
  <symbol fill="inherit" xmlns="http://www.w3.org/2000/svg" viewBox="0 0 16 16" id="applemusic">
    <g clip-path="url(#clip0_28_128)">
      <path d="M15.996 4.08268C16.0011 3.59137 15.9474 3.10121 15.836 2.62268C15.6247 1.74934 15.128 1.08268 14.3827 0.594009C14.0025 0.349896 13.5768 0.185258 13.1313 0.110009C12.7868 0.0506731 12.4382 0.0172461 12.0887 0.0100094C12.062 0.00800944 12.0333 0.00334277 12.006 0.00134277H3.99067C3.88933 0.00800944 3.78867 0.0126761 3.68733 0.0186761C3.18933 0.0473428 2.694 0.100676 2.22533 0.285343C1.33467 0.638676 0.692 1.25334 0.315333 2.13868C0.187333 2.43734 0.120667 2.75534 0.0733333 3.07734C0.0364831 3.33812 0.0142262 3.60075 0.00666667 3.86401C0.00666667 3.88534 0.002 3.90534 0 3.92601V12.0747C0.00666667 12.168 0.0113333 12.2633 0.018 12.3573C0.0513333 12.9007 0.120667 13.44 0.349333 13.9393C0.782667 14.886 1.508 15.508 2.50533 15.8067C2.78533 15.8913 3.076 15.9313 3.36733 15.9587C3.73733 15.994 4.10733 15.9987 4.47867 15.9987H11.832C12.1819 15.9985 12.5315 15.9762 12.8787 15.932C13.4267 15.8613 13.9427 15.6987 14.4087 15.392C14.9614 15.0347 15.3971 14.5232 15.662 13.9207C15.786 13.6407 15.8573 13.3407 15.9087 13.038C15.984 12.588 16.0007 12.1327 16 11.678C15.9987 9.14468 16 6.61468 15.998 4.08268H15.996ZM11.714 6.74268V10.5507C11.714 10.8287 11.6753 11.102 11.5513 11.3547C11.358 11.748 11.0447 11.996 10.626 12.1147C10.3927 12.1813 10.1553 12.2193 9.91267 12.23C9.27933 12.26 8.73067 11.83 8.61733 11.206C8.56974 10.9366 8.61161 10.659 8.73656 10.4156C8.86151 10.1722 9.06267 9.97637 9.30933 9.85801C9.52467 9.75134 9.756 9.69134 9.988 9.64201C10.24 9.58734 10.4933 9.54001 10.744 9.48201C10.9267 9.44001 11.0487 9.32868 11.084 9.13801C11.093 9.09572 11.0975 9.05259 11.0973 9.00934C11.0973 7.79934 11.0973 6.58934 11.096 5.38068C11.0956 5.33899 11.0897 5.29753 11.0787 5.25734C11.052 5.15734 10.9787 5.09534 10.876 5.10134C10.7693 5.10801 10.664 5.12468 10.5593 5.14534C10.0527 5.24534 9.546 5.34734 9.03933 5.44934L7.48933 5.76268L6.57333 5.94801C6.56267 5.95001 6.552 5.95468 6.54133 5.95668C6.35667 6.00801 6.29 6.09201 6.28133 6.28334C6.28 6.31134 6.28133 6.34068 6.28133 6.37001C6.28 8.10468 6.28133 9.83934 6.27933 11.5733C6.27933 11.8533 6.248 12.1307 6.136 12.3913C5.95067 12.818 5.62267 13.0847 5.18 13.2133C4.94667 13.28 4.70667 13.32 4.46333 13.328C3.82333 13.352 3.29333 12.928 3.18333 12.2987C3.09 11.7573 3.33667 11.1753 3.95267 10.9153C4.19067 10.8153 4.43933 10.7607 4.69133 10.7087C4.88267 10.6687 5.07467 10.6313 5.26467 10.5907C5.52 10.5353 5.65333 10.3753 5.66467 10.1147V10.0147C5.66467 8.04134 5.66467 6.06668 5.666 4.09334C5.666 4.01134 5.67467 3.92668 5.694 3.84668C5.74067 3.65668 5.876 3.54801 6.058 3.50134C6.228 3.45734 6.40133 3.42668 6.574 3.39134C7.06267 3.29134 7.55133 3.19401 8.04067 3.09534L9.554 2.78868C10.0007 2.69934 10.4473 2.60868 10.894 2.52001C11.0407 2.49134 11.1887 2.46134 11.336 2.44934C11.5427 2.43268 11.6847 2.56268 11.7053 2.77068C11.7107 2.81934 11.7133 2.86934 11.7133 2.91934C11.7147 4.19268 11.7147 5.46734 11.7133 6.74068L11.714 6.74268Z"></path>
    </g>
    <defs>
      <clipPath id="clip0_28_128">
        <rect width="16" height="16" fill="white"></rect>
      </clipPath>
    </defs>
  </symbol>
  <symbol fill="inherit" xmlns="http://www.w3.org/2000/svg" viewBox="0 0 16 16" id="tiktok">
    <path d="M11.0667 3.88C10.611 3.35975 10.3598 2.69162 10.36 2H8.30001V10.2667C8.28412 10.714 8.09526 11.1377 7.77319 11.4486C7.45112 11.7595 7.02098 11.9333 6.57335 11.9333C5.62668 11.9333 4.84001 11.16 4.84001 10.2C4.84001 9.05333 5.94668 8.19333 7.08668 8.54667V6.44C4.78668 6.13333 2.77335 7.92 2.77335 10.2C2.77335 12.42 4.61335 14 6.56668 14C8.66001 14 10.36 12.3 10.36 10.2V6.00667C11.1953 6.60657 12.1983 6.92843 13.2267 6.92667V4.86667C13.2267 4.86667 11.9733 4.92667 11.0667 3.88Z"></path>
  </symbol>
  <symbol fill="inherit" xmlns="http://www.w3.org/2000/svg" viewBox="0 0 16 16" id="instagram">
    <path d="M8.68533 1.33401C9.17182 1.33214 9.65831 1.33703 10.1447 1.34868L10.274 1.35334C10.4233 1.35868 10.5707 1.36534 10.7487 1.37334C11.458 1.40668 11.942 1.51868 12.3667 1.68334C12.8067 1.85268 13.1773 2.08201 13.548 2.45268C13.8869 2.78575 14.1492 3.18864 14.3167 3.63334C14.4813 4.05801 14.5933 4.54268 14.6267 5.25201C14.6347 5.42934 14.6413 5.57734 14.6467 5.72668L14.6507 5.85601C14.6625 6.34214 14.6676 6.82841 14.666 7.31468L14.6667 7.81201V8.68534C14.6683 9.17184 14.6632 9.65833 14.6513 10.1447L14.6473 10.274C14.642 10.4233 14.6353 10.5707 14.6273 10.7487C14.594 11.458 14.4807 11.942 14.3167 12.3667C14.1498 12.8119 13.8874 13.2151 13.548 13.548C13.2146 13.8869 12.8115 14.1492 12.3667 14.3167C11.942 14.4813 11.458 14.5933 10.7487 14.6267C10.5707 14.6347 10.4233 14.6413 10.274 14.6467L10.1447 14.6507C9.65831 14.6625 9.17182 14.6676 8.68533 14.666L8.188 14.6667H7.31533C6.82884 14.6683 6.34235 14.6632 5.856 14.6513L5.72666 14.6473C5.5684 14.6416 5.41018 14.6349 5.252 14.6273C4.54266 14.594 4.05866 14.4807 3.63333 14.3167C3.18845 14.1496 2.78549 13.8872 2.45266 13.548C2.11336 13.2149 1.85081 12.8117 1.68333 12.3667C1.51866 11.942 1.40666 11.458 1.37333 10.7487C1.36591 10.5905 1.35924 10.4323 1.35333 10.274L1.35 10.1447C1.33771 9.65833 1.33215 9.17184 1.33333 8.68534V7.31468C1.33147 6.82841 1.33636 6.34214 1.348 5.85601L1.35266 5.72668C1.358 5.57734 1.36466 5.42934 1.37266 5.25201C1.406 4.54201 1.518 4.05868 1.68266 3.63334C1.85025 3.18842 2.11331 2.78564 2.45333 2.45334C2.78593 2.11385 3.18864 1.85106 3.63333 1.68334C4.05866 1.51868 4.542 1.40668 5.252 1.37334L5.72666 1.35334L5.856 1.35001C6.34212 1.33773 6.82839 1.33217 7.31467 1.33334L8.68533 1.33401ZM8 4.66734C7.55834 4.6611 7.11984 4.74269 6.70998 4.90739C6.30013 5.07209 5.9271 5.3166 5.61256 5.62671C5.29803 5.93683 5.04827 6.30637 4.87779 6.71385C4.70731 7.12134 4.61953 7.55864 4.61953 8.00034C4.61953 8.44205 4.70731 8.87935 4.87779 9.28684C5.04827 9.69432 5.29803 10.0639 5.61256 10.374C5.9271 10.6841 6.30013 10.9286 6.70998 11.0933C7.11984 11.258 7.55834 11.3396 8 11.3333C8.88405 11.3333 9.7319 10.9822 10.357 10.357C10.9821 9.73191 11.3333 8.88407 11.3333 8.00001C11.3333 7.11596 10.9821 6.26811 10.357 5.64299C9.7319 5.01787 8.88405 4.66734 8 4.66734ZM8 6.00068C8.26567 5.99578 8.52965 6.04388 8.77653 6.14215C9.0234 6.24042 9.24822 6.38691 9.43785 6.57304C9.62748 6.75918 9.77812 6.98123 9.88096 7.22624C9.98381 7.47125 10.0368 7.73429 10.0368 8.00001C10.0369 8.26572 9.98398 8.52878 9.88122 8.77382C9.77846 9.01886 9.62789 9.24097 9.43833 9.42717C9.24876 9.61337 9.02399 9.75993 8.77715 9.85828C8.53031 9.95664 8.26634 10.0048 8.00067 10C7.47023 10 6.96152 9.7893 6.58645 9.41423C6.21138 9.03915 6.00067 8.53044 6.00067 8.00001C6.00067 7.46958 6.21138 6.96087 6.58645 6.5858C6.96152 6.21072 7.47023 6.00001 8.00067 6.00001L8 6.00068ZM11.5 3.66734C11.2849 3.67595 11.0815 3.76745 10.9324 3.92266C10.7833 4.07787 10.7 4.28477 10.7 4.50001C10.7 4.71525 10.7833 4.92215 10.9324 5.07736C11.0815 5.23258 11.2849 5.32407 11.5 5.33268C11.721 5.33268 11.933 5.24488 12.0893 5.0886C12.2455 4.93232 12.3333 4.72036 12.3333 4.49934C12.3333 4.27833 12.2455 4.06637 12.0893 3.91009C11.933 3.75381 11.721 3.66601 11.5 3.66601V3.66734Z"></path>
  </symbol>
  <symbol fill="inherit" xmlns="http://www.w3.org/2000/svg" viewBox="0 0 16 16" id="spotify">
    <path d="M11.9333 7.26665C9.80001 5.99998 6.23334 5.86665 4.20001 6.49998C3.86668 6.59998 3.53334 6.39998 3.43334 6.09998C3.33334 5.76665 3.53334 5.43331 3.83334 5.33331C6.20001 4.63331 10.1 4.76665 12.5667 6.23331C12.8667 6.39998 12.9667 6.79998 12.8 7.09998C12.6333 7.33331 12.2333 7.43331 11.9333 7.26665ZM11.8667 9.13331C11.7 9.36665 11.4 9.46665 11.1667 9.29998C9.36668 8.19998 6.63334 7.86665 4.53334 8.53331C4.26668 8.59998 3.96668 8.46665 3.90001 8.19998C3.83334 7.93331 3.96668 7.63331 4.23334 7.56665C6.66668 6.83331 9.66668 7.19998 11.7333 8.46665C11.9333 8.56665 12.0333 8.89998 11.8667 9.13331ZM11.0667 10.9666C10.9333 11.1666 10.7 11.2333 10.5 11.1C8.93334 10.1333 6.96668 9.93331 4.63334 10.4666C4.40001 10.5333 4.20001 10.3666 4.13334 10.1666C4.06668 9.93331 4.23334 9.73331 4.43334 9.66665C6.96668 9.09998 9.16668 9.33331 10.9 10.4C11.1333 10.5 11.1667 10.7666 11.0667 10.9666ZM8.00001 1.33331C7.12453 1.33331 6.25762 1.50575 5.44879 1.84078C4.63995 2.17581 3.90502 2.66688 3.28596 3.28593C2.03572 4.53618 1.33334 6.23187 1.33334 7.99998C1.33334 9.76809 2.03572 11.4638 3.28596 12.714C3.90502 13.3331 4.63995 13.8241 5.44879 14.1592C6.25762 14.4942 7.12453 14.6666 8.00001 14.6666C9.76812 14.6666 11.4638 13.9643 12.7141 12.714C13.9643 11.4638 14.6667 9.76809 14.6667 7.99998C14.6667 7.1245 14.4942 6.25759 14.1592 5.44876C13.8242 4.63992 13.3331 3.90499 12.7141 3.28593C12.095 2.66688 11.3601 2.17581 10.5512 1.84078C9.7424 1.50575 8.87549 1.33331 8.00001 1.33331Z"></path>
  </symbol>

    <symbol fill="inherit" xmlns="http://www.w3.org/2000/svg" viewBox="0 0 19 16" id="arrow-right">
    <path d="M16.2723 8.35375L11.2309 12.8538C11.1258 12.9476 10.9832 13.0003 10.8346 13.0003C10.686 13.0003 10.5434 12.9476 10.4383 12.8538C10.3332 12.7599 10.2741 12.6327 10.2741 12.5C10.2741 12.3673 10.3332 12.2401 10.4383 12.1463L14.5239 8.5H3.55264C3.40408 8.5 3.26161 8.44733 3.15656 8.35356C3.05151 8.25979 2.99249 8.13261 2.99249 8C2.99249 7.8674 3.05151 7.74022 3.15656 7.64645C3.26161 7.55268 3.40408 7.5 3.55264 7.5H14.5239L10.4383 3.85375C10.3332 3.75993 10.2741 3.63269 10.2741 3.5C10.2741 3.36732 10.3332 3.24007 10.4383 3.14625C10.5434 3.05243 10.686 2.99973 10.8346 2.99973C10.9832 2.99973 11.1258 3.05243 11.2309 3.14625L16.2723 7.64625C16.3243 7.69269 16.3657 7.74783 16.3938 7.80853C16.422 7.86923 16.4365 7.9343 16.4365 8C16.4365 8.06571 16.422 8.13077 16.3938 8.19147C16.3657 8.25217 16.3243 8.30732 16.2723 8.35375Z"></path>
  </symbol>

    <symbol fill="inherit" xmlns="http://www.w3.org/2000/svg" viewBox="0 0 16 16" id="pause">
    <path d="M5.33333 12.6667C6.06667 12.6667 6.66667 12.0667 6.66667 11.3333V4.66668C6.66667 3.93334 6.06667 3.33334 5.33333 3.33334C4.6 3.33334 4 3.93334 4 4.66668V11.3333C4 12.0667 4.6 12.6667 5.33333 12.6667ZM9.33333 4.66668V11.3333C9.33333 12.0667 9.93333 12.6667 10.6667 12.6667C11.4 12.6667 12 12.0667 12 11.3333V4.66668C12 3.93334 11.4 3.33334 10.6667 3.33334C9.93333 3.33334 9.33333 3.93334 9.33333 4.66668Z"></path>
  </symbol>
  <symbol fill="inherit" xmlns="http://www.w3.org/2000/svg" viewBox="0 0 16 16" id="play">
    <path d="M15 8C15.0004 8.16977 14.9569 8.33675 14.8736 8.48471C14.7904 8.63267 14.6703 8.75658 14.525 8.84437L5.52 14.3531C5.36818 14.4461 5.19429 14.4968 5.0163 14.5001C4.83831 14.5034 4.66266 14.4592 4.5075 14.3719C4.35382 14.2859 4.2258 14.1606 4.1366 14.0088C4.04741 13.857 4.00026 13.6842 4 13.5081V2.49187C4.00026 2.3158 4.04741 2.14298 4.1366 1.99117C4.2258 1.83936 4.35382 1.71405 4.5075 1.62812C4.66266 1.54084 4.83831 1.49656 5.0163 1.49986C5.19429 1.50315 5.36818 1.55391 5.52 1.64687L14.525 7.15562C14.6703 7.24342 14.7904 7.36732 14.8736 7.51529C14.9569 7.66325 15.0004 7.83023 15 8Z"></path>
  </symbol>
  <symbol fill="inherit" xmlns="http://www.w3.org/2000/svg" viewBox="0 0 64 64" id="slider-arrow">
    <path d="M41.1429 19.8003L53.3333 31.9969L41.1429 44.1904M13.7143 31.9999H53.3333" stroke="white" stroke-linecap="round" stroke-linejoin="round"></path>
  </symbol>

  <symbol fill="inherit" xmlns="http://www.w3.org/2000/svg" viewBox="0 0 24 24" id="round-menu">
    <path d="M4 18H20C20.55 18 21 17.55 21 17C21 16.45 20.55 16 20 16H4C3.45 16 3 16.45 3 17C3 17.55 3.45 18 4 18ZM4 13H20C20.55 13 21 12.55 21 12C21 11.45 20.55 11 20 11H4C3.45 11 3 11.45 3 12C3 12.55 3.45 13 4 13ZM3 7C3 7.55 3.45 8 4 8H20C20.55 8 21 7.55 21 7C21 6.45 20.55 6 20 6H4C3.45 6 3 6.45 3 7Z"></path>
  </symbol>

  <symbol fill="inherit" xmlns="http://www.w3.org/2000/svg" viewBox="0 0 24 24" id="round-close">
    <path d="M18.3 5.71022C18.2075 5.61752 18.0976 5.54397 17.9766 5.49379C17.8557 5.44361 17.726 5.41778 17.595 5.41778C17.464 5.41778 17.3344 5.44361 17.2134 5.49379C17.0924 5.54397 16.9825 5.61752 16.89 5.71022L12 10.5902L7.11001 5.70022C7.01743 5.60764 6.90752 5.5342 6.78655 5.4841C6.66559 5.43399 6.53594 5.4082 6.40501 5.4082C6.27408 5.4082 6.14443 5.43399 6.02347 5.4841C5.9025 5.5342 5.79259 5.60764 5.70001 5.70022C5.60743 5.79281 5.53399 5.90272 5.48388 6.02368C5.43378 6.14464 5.40799 6.27429 5.40799 6.40522C5.40799 6.53615 5.43378 6.6658 5.48388 6.78677C5.53399 6.90773 5.60743 7.01764 5.70001 7.11022L10.59 12.0002L5.70001 16.8902C5.60743 16.9828 5.53399 17.0927 5.48388 17.2137C5.43378 17.3346 5.40799 17.4643 5.40799 17.5952C5.40799 17.7262 5.43378 17.8558 5.48388 17.9768C5.53399 18.0977 5.60743 18.2076 5.70001 18.3002C5.79259 18.3928 5.9025 18.4662 6.02347 18.5163C6.14443 18.5665 6.27408 18.5922 6.40501 18.5922C6.53594 18.5922 6.66559 18.5665 6.78655 18.5163C6.90752 18.4662 7.01743 18.3928 7.11001 18.3002L12 13.4102L16.89 18.3002C16.9826 18.3928 17.0925 18.4662 17.2135 18.5163C17.3344 18.5665 17.4641 18.5922 17.595 18.5922C17.7259 18.5922 17.8556 18.5665 17.9766 18.5163C18.0975 18.4662 18.2074 18.3928 18.3 18.3002C18.3926 18.2076 18.466 18.0977 18.5161 17.9768C18.5662 17.8558 18.592 17.7262 18.592 17.5952C18.592 17.4643 18.5662 17.3346 18.5161 17.2137C18.466 17.0927 18.3926 16.9828 18.3 16.8902L13.41 12.0002L18.3 7.11022C18.68 6.73022 18.68 6.09022 18.3 5.71022Z" fill-opacity="0.5"></path>
  </symbol>
</svg>